<svg width="100" height="100" viewBox="0 0 24 24" fill="none" xmlns="http://www.w3.org/2000/svg">
  <path fill="#FF0000" d="M23.498 6.186a2.99 2.99 0 0 0-2.105-2.112C19.687 3.5 12 3.5 12 3.5s-7.687 0-9.393.574a2.99 2.99 0 0 0-2.105 2.112A31.24 31.24 0 0 0 0 12a31.24 31.24 0 0 0 .502 5.814 2.99 2.99 0 0 0 2.105 2.112C4.313 20.5 12 20.5 12 20.5s7.687 0 9.393-.574a2.99 2.99 0 0 0 2.105-2.112A31.24 31.24 0 0 0 24 12a31.24 31.24 0 0 0-.502-5.814z"/>
  <path fill="#FFF" d="M9.545 15.568V8.432a.545.545 0 0 1 .82-.457l5.727 3.568a.545.545 0 0 1 0 .914l-5.727 3.568a.545.545 0 0 1-.82-.457z"/>
</svg>
